<?xml version="1.0" standalone="no"?><!DOCTYPE svg PUBLIC "-//W3C//DTD SVG 1.1//EN" "http://www.w3.org/Graphics/SVG/1.1/DTD/svg11.dtd"><svg t="1537327479533" class="icon" style="" viewBox="0 0 1024 1024" version="1.1" xmlns="http://www.w3.org/2000/svg" p-id="1385" xmlns:xlink="http://www.w3.org/1999/xlink" width="200" height="200"><defs><style type="text/css"></style></defs><path d="M269.722024 192.736653c-28.342512 20.149922-53.53324 42.982954-75.568093 68.477604-22.040992 25.505907-40.933271 53.058426-56.669674 82.652442-15.748682 29.597085-27.709085 60.925604-35.897581 93.986581-8.182356 33.060977-12.277628 66.591651-12.277628 100.590999 0 58.563814 11.178597 113.50717 33.530674 164.830069 22.353101 51.319829 52.581566 96.030124 90.678232 134.122697 38.099736 38.105876 82.811054 68.324108 134.128837 90.681302 51.318806 22.351054 106.265232 33.530674 164.821883 33.530674 57.931411 0 112.565728-11.17962 163.882488-33.530674 51.326992-22.357194 96.189759-52.581566 134.602627-90.681302 38.410821-38.092573 68.64031-82.809007 90.676186-134.122697 22.040992-51.323922 33.059953-106.266255 33.059953-164.830069 0-33.371038-3.934612-66.116837-11.80793-98.229209-7.872295-32.115442-19.050891-62.656015-33.530674-91.623767-14.487969-28.965705-32.431643-56.040341-53.840232-81.230046-21.411659-25.189705-45.338604-47.861054-71.790046-68.010977-13.853519-10.079566-28.809139-13.856589-44.86379-11.337209-16.054651 2.521426-29.125341 10.392698-39.198767 23.61586-10.079566 13.229303-13.853519 28.022217-11.338233 44.393069 2.526543 16.372899 10.391674 29.602202 23.61586 39.676651 39.666418 28.959565 70.056566 64.536852 91.153046 106.730836 21.090341 42.191938 31.638581 87.529519 31.638581 136.009673 0 41.564651-7.866155 80.769558-23.613814 117.606535-15.742543 36.833907-37.307697 68.949348-64.696488 96.342232-27.396977 27.396977-59.512419 49.120744-96.351442 65.175395-36.838 16.056698-76.032674 24.086581-117.598348 24.086581-41.555441 0-80.756255-8.029884-117.594255-24.086581-36.840046-16.054651-68.960605-37.778418-96.346325-65.175395-27.392884-27.392884-49.118698-59.504232-65.171302-96.342232-16.060791-36.838-24.083511-76.041884-24.083511-117.606535 0-49.108464 11.33107-95.55224 34.001395-139.315976 22.671349-43.765783 54.465472-79.809697 95.399767-108.148116 13.852496-9.451256 22.194488-22.358217 25.025976-38.72907 2.837628-16.372899-0.472767-31.487132-9.910721-45.345768-9.453303-13.223163-22.358217-21.253046-38.730093-24.079418-16.372899-2.831488-31.482015 0.464581-45.333488 9.910721l0 0 0 0.005117L269.722024 192.736653M512.466628 541.284977c16.375969 0 30.387078-5.827729 42.038442-17.470907 11.648294-11.653411 17.473977-25.665543 17.473977-42.038442L571.979046 122.836653c0-16.372899-5.825682-30.540573-17.473977-42.500976-11.651364-11.966543-25.66145-17.945721-42.038442-17.945721-16.997116 0-31.322379 5.979178-42.971697 17.945721-11.648294 11.960403-17.476023 26.128077-17.476023 42.500976L452.018907 481.775628c0 16.372899 5.827729 30.382984 17.476023 42.038442C481.144248 535.457248 495.469512 541.284977 512.466628 541.284977L512.466628 541.284977 512.466628 541.284977M512.466628 541.284977 512.466628 541.284977z" p-id="1386" fill="#d81e06"></path></svg>